<svg xmlns="http://www.w3.org/2000/svg" viewBox="0 0 8 8">
	<rect width="2" height="1" fill="#707070"/>
	<rect width="2" height="1" x="6" fill="#707070"/>
	<rect width="2" height="1" x="1" y="1" fill="#707070"/>
	<rect width="2" height="1" x="5" y="1" fill="#707070"/>
	<rect width="4" height="1" x="2" y="2" fill="#707070"/>
	<rect width="2" height="1" x="3" y="3" fill="#707070"/>
	<rect width="4" height="1" x="2" y="4" fill="#707070"/>
	<rect width="2" height="1" x="1" y="5" fill="#707070"/>
	<rect width="2" height="1" x="5" y="5" fill="#707070"/>
	<rect width="2" height="1" y="6" fill="#707070"/>
	<rect width="2" height="1" x="6" y="6" fill="#707070"/>

    <rect width="1" height="1" x="7" y="1" fill="#ffffff"/>
    <rect width="2" height="1" x="6" y="2" fill="#ffffff"/>
    <rect width="2" height="1" x="5" y="3" fill="#ffffff"/>
    <rect width="2" height="1" x="3" y="5" fill="#ffffff"/>
    <rect width="2" height="1" x="2" y="6" fill="#ffffff"/>
    <rect width="2" height="1" x="1" y="7" fill="#ffffff"/>
    <rect width="1" height="1" x="7" y="7" fill="#ffffff"/>
</svg>